<?xml version="1.0" encoding="UTF-8" standalone="no"?>
<!-- Created with Inkscape (http://www.inkscape.org/) -->

<svg
   width="512"
   height="512"
   viewBox="0 0 135.46666 135.46667"
   version="1.1"
   id="svg1"
   inkscape:version="1.3.2 (091e20e, 2023-11-25, custom)"
   sodipodi:docname="make keyboard icon 2.svg"
   xml:space="preserve"
   xmlns:inkscape="http://www.inkscape.org/namespaces/inkscape"
   xmlns:sodipodi="http://sodipodi.sourceforge.net/DTD/sodipodi-0.dtd"
   xmlns="http://www.w3.org/2000/svg"
   xmlns:svg="http://www.w3.org/2000/svg"><sodipodi:namedview
     id="namedview1"
     pagecolor="#ffffff"
     bordercolor="#000000"
     borderopacity="0.25"
     inkscape:showpageshadow="2"
     inkscape:pageopacity="0.0"
     inkscape:pagecheckerboard="true"
     inkscape:deskcolor="#d1d1d1"
     inkscape:document-units="px"
     inkscape:zoom="1"
     inkscape:cx="244.5"
     inkscape:cy="288.5"
     inkscape:window-width="2097"
     inkscape:window-height="1237"
     inkscape:window-x="1212"
     inkscape:window-y="55"
     inkscape:window-maximized="0"
     inkscape:current-layer="layer1"
     showgrid="false" /><defs
     id="defs1"><inkscape:path-effect
       effect="fillet_chamfer"
       id="path-effect23"
       is_visible="true"
       lpeversion="1"
       nodesatellites_param="F,0,0,1,0,17,0,1 @ F,0,0,1,0,17,0,1 @ F,0,0,1,0,17,0,1 @ F,0,0,1,0,17,0,1"
       radius="16"
       unit="px"
       method="auto"
       mode="F"
       chamfer_steps="1"
       flexible="false"
       use_knot_distance="true"
       apply_no_radius="true"
       apply_with_radius="true"
       only_selected="false"
       hide_knots="false" /><inkscape:path-effect
       effect="fillet_chamfer"
       id="path-effect21"
       is_visible="true"
       lpeversion="1"
       nodesatellites_param="F,0,0,1,0,17,0,1 @ F,0,0,1,0,17,0,1 @ F,0,0,1,0,17,0,1 @ F,0,0,1,0,17,0,1"
       radius="16"
       unit="px"
       method="auto"
       mode="F"
       chamfer_steps="1"
       flexible="false"
       use_knot_distance="true"
       apply_no_radius="true"
       apply_with_radius="true"
       only_selected="false"
       hide_knots="false" /><inkscape:path-effect
       effect="fillet_chamfer"
       id="path-effect6"
       is_visible="true"
       lpeversion="1"
       nodesatellites_param="F,0,0,1,0,17,0,1 @ F,0,0,1,0,17,0,1 @ F,0,0,1,0,17,0,1 @ F,0,0,1,0,17,0,1"
       radius="16"
       unit="px"
       method="auto"
       mode="F"
       chamfer_steps="1"
       flexible="false"
       use_knot_distance="true"
       apply_no_radius="true"
       apply_with_radius="true"
       only_selected="false"
       hide_knots="false" /><inkscape:path-effect
       effect="fillet_chamfer"
       id="path-effect1"
       is_visible="true"
       lpeversion="1"
       nodesatellites_param="F,0,0,1,0,16,0,1 @ F,0,0,1,0,16,0,1 @ F,0,0,1,0,16,0,1 @ F,0,0,1,0,16,0,1 | F,0,0,1,0,16,0,1 @ F,0,0,1,0,16,0,1 @ F,0,0,1,0,16,0,1 @ F,0,0,1,0,16,0,1 | F,0,0,1,0,16,0,1 @ F,0,0,1,0,16,0,1 @ F,0,0,1,0,16,0,1 @ F,0,0,1,0,16,0,1 | F,0,0,1,0,16,0,1 @ F,0,0,1,0,16,0,1 @ F,0,0,1,0,16,0,1 @ F,0,0,1,0,16,0,1 | F,0,0,1,0,16,0,1 @ F,0,0,1,0,16,0,1 @ F,0,0,1,0,16,0,1 @ F,0,0,1,0,16,0,1 | F,0,0,1,0,16,0,1 @ F,0,0,1,0,16,0,1 @ F,0,0,1,0,16,0,1 @ F,0,0,1,0,16,0,1 | F,0,0,1,0,16,0,1 @ F,0,0,1,0,16,0,1 @ F,0,0,1,0,16,0,1 @ F,0,0,1,0,16,0,1 | F,0,0,1,0,16,0,1 @ F,0,0,1,0,16,0,1 @ F,0,0,1,0,16,0,1 @ F,0,0,1,0,16,0,1"
       radius="16"
       unit="px"
       method="auto"
       mode="F"
       chamfer_steps="1"
       flexible="false"
       use_knot_distance="true"
       apply_no_radius="true"
       apply_with_radius="true"
       only_selected="false"
       hide_knots="false" /><inkscape:path-effect
       effect="fillet_chamfer"
       id="path-effect35"
       is_visible="true"
       lpeversion="1"
       nodesatellites_param="F,0,0,1,0,17,0,1 @ F,0,0,1,0,17,0,1 @ F,0,0,1,0,17,0,1 @ F,0,0,1,0,17,0,1"
       radius="16"
       unit="px"
       method="auto"
       mode="F"
       chamfer_steps="1"
       flexible="false"
       use_knot_distance="true"
       apply_no_radius="true"
       apply_with_radius="true"
       only_selected="false"
       hide_knots="false" /><inkscape:path-effect
       effect="fillet_chamfer"
       id="path-effect34"
       is_visible="true"
       lpeversion="1"
       nodesatellites_param="F,0,0,1,0,8,0,1 @ F,0,0,1,0,8,0,1 @ F,0,0,1,0,8,0,1 @ F,0,0,1,0,8,0,1 @ F,0,0,1,0,8,0,1 | F,0,0,1,0,8,0,1 @ F,0,0,1,0,8,0,1 @ F,0,0,1,0,8,0,1 @ F,0,0,1,0,8,0,1 @ F,0,0,1,0,8,0,1 | F,0,0,1,0,8,0,1 @ F,0,0,1,0,8,0,1 @ F,0,0,1,0,8,0,1 @ F,0,0,1,0,8,0,1 @ F,0,0,1,0,8,0,1 | F,0,0,1,0,8,0,1 @ F,0,0,1,0,8,0,1 @ F,0,0,1,0,8,0,1 @ F,0,0,1,0,8,0,1 @ F,0,0,1,0,8,0,1 | F,0,0,1,0,8,0,1 @ F,0,0,1,0,8,0,1 @ F,0,0,1,0,8,0,1 @ F,0,0,1,0,8,0,1 @ F,0,0,1,0,8,0,1 | F,0,0,1,0,8,0,1 @ F,0,0,1,0,8,0,1 @ F,0,0,1,0,8,0,1 @ F,0,0,1,0,8,0,1 @ F,0,0,1,0,8,0,1 | F,0,0,1,0,8,0,1 @ F,0,0,1,0,8,0,1 @ F,0,0,1,0,8,0,1 @ F,0,0,1,0,8,0,1 @ F,0,0,1,0,8,0,1 | F,0,0,1,0,8,0,1 @ F,0,0,1,0,8,0,1 @ F,0,0,1,0,8,0,1 @ F,0,0,1,0,8,0,1 @ F,0,0,1,0,8,0,1"
       radius="8"
       unit="px"
       method="auto"
       mode="F"
       chamfer_steps="1"
       flexible="false"
       use_knot_distance="true"
       apply_no_radius="true"
       apply_with_radius="true"
       only_selected="false"
       hide_knots="false" /><filter
       style="color-interpolation-filters:sRGB;"
       inkscape:label="Drop Shadow"
       id="filter42"
       x="-0.10141124"
       y="-0.10141124"
       width="1.2662045"
       height="1.2662045"><feFlood
         result="flood"
         in="SourceGraphic"
         flood-opacity="0.5"
         flood-color="rgb(0,0,0)"
         id="feFlood41" /><feGaussianBlur
         result="blur"
         in="SourceGraphic"
         stdDeviation="4.000000"
         id="feGaussianBlur41" /><feOffset
         result="offset"
         in="blur"
         dx="6.000000"
         dy="6.000000"
         id="feOffset41" /><feComposite
         result="comp1"
         operator="in"
         in="flood"
         in2="offset"
         id="feComposite41" /><feComposite
         result="comp2"
         operator="over"
         in="SourceGraphic"
         in2="comp1"
         id="feComposite42" /></filter><clipPath
       clipPathUnits="userSpaceOnUse"
       id="clipPath6"><rect
         style="fill:#000000;fill-opacity:1;stroke-width:0.264583"
         id="rect6"
         width="135.46667"
         height="135.46667"
         x="6.5877515e-08"
         y="-1.1523218e-06" /></clipPath></defs><g
     inkscape:label="background"
     inkscape:groupmode="layer"
     id="layer1"
     style="display:inline"><rect
       style="fill:#3db8f5;fill-opacity:1;stroke-width:0.264583"
       id="rect2"
       width="135.46667"
       height="135.46667"
       x="6.5877515e-08"
       y="-1.1523218e-06" /><ellipse
       style="fill:#0da6f2;fill-opacity:1;stroke-width:0.267911"
       id="path2"
       cx="165.54781"
       cy="127.24595"
       rx="220.76463"
       ry="95.60231"
       clip-path="url(#clipPath6)" /></g><g
     inkscape:groupmode="layer"
     id="layer2"
     inkscape:label="foreground"
     style="display:inline"><path
       id="path1"
       style="fill:#dcdee5;fill-opacity:1;stroke-width:0.115455"
       d="m 36.584128,57.096235 h 7.234851 a 1.8472727,1.8472727 0 0 0 1.847272,-1.847273 v -7.23485 a 1.8472727,1.8472727 0 0 0 -1.847272,-1.847273 h -7.234851 a 1.8472727,1.8472727 0 0 0 -1.847273,1.847273 v 7.23485 a 1.8472727,1.8472727 0 0 0 1.847273,1.847273 z m 36.945454,0 h 7.234851 a 1.8472727,1.8472727 0 0 0 1.847272,-1.847273 v -7.23485 a 1.8472727,1.8472727 0 0 0 -1.847272,-1.847273 h -7.234851 a 1.8472727,1.8472727 0 0 0 -1.847273,1.847273 v 7.23485 a 1.8472727,1.8472727 0 0 0 1.847273,1.847273 z m 18.472727,0 h 7.234851 a 1.8472727,1.8472727 0 0 0 1.84727,-1.847273 v -7.23485 a 1.8472727,1.8472727 0 0 0 -1.84727,-1.847273 h -7.234851 a 1.8472727,1.8472727 0 0 0 -1.847273,1.847273 v 7.23485 a 1.8472727,1.8472727 0 0 0 1.847273,1.847273 z M 36.584128,75.568962 h 7.234851 a 1.8472727,1.8472727 0 0 0 1.847272,-1.847273 v -7.23485 a 1.8472727,1.8472727 0 0 0 -1.847272,-1.847273 h -7.234851 a 1.8472727,1.8472727 0 0 0 -1.847273,1.847273 v 7.23485 a 1.8472727,1.8472727 0 0 0 1.847273,1.847273 z m 18.472727,0 h 7.234851 a 1.8472727,1.8472727 0 0 0 1.847272,-1.847273 v -7.23485 a 1.8472727,1.8472727 0 0 0 -1.847272,-1.847273 h -7.234851 a 1.8472727,1.8472727 0 0 0 -1.847273,1.847273 v 7.23485 a 1.8472727,1.8472727 0 0 0 1.847273,1.847273 z m 18.472727,0 h 7.234851 a 1.8472727,1.8472727 0 0 0 1.847272,-1.847273 v -7.23485 a 1.8472727,1.8472727 0 0 0 -1.847272,-1.847273 h -7.234851 a 1.8472727,1.8472727 0 0 0 -1.847273,1.847273 v 7.23485 a 1.8472727,1.8472727 0 0 0 1.847273,1.847273 z m 18.472727,0 h 7.234851 a 1.8472727,1.8472727 0 0 0 1.84727,-1.847273 v -7.23485 a 1.8472727,1.8472727 0 0 0 -1.84727,-1.847273 h -7.234851 a 1.8472727,1.8472727 0 0 0 -1.847273,1.847273 v 7.23485 a 1.8472727,1.8472727 0 0 0 1.847273,1.847273 z M 50.438673,90.693507 h 34.943941 a 1.8472727,1.8472727 0 0 0 1.847273,-1.847272 V 84.959566 A 1.8472727,1.8472727 0 0 0 85.382614,83.112293 H 50.438673 a 1.8472727,1.8472727 0 0 0 -1.847272,1.847273 v 3.886669 a 1.8472727,1.8472727 0 0 0 1.847272,1.847272 z"
       sodipodi:nodetypes="cccccccccccccccccccccccccccccccccccccccc" /><g
       id="g7"
       transform="matrix(0.11545454,0,0,0.11545454,8.2591294,116.67093)"
       style="fill:#e8eaed"><path
         id="path4"
         style="fill:#31373e;fill-opacity:1"
         d="m 369.66797,-589.33464 h 60.66406 a 17,17 135 0 0 17,-17 v -60.66406 a 17,17 45 0 0 -17,-17 h -60.66406 a 17,17 135 0 0 -17,17 v 60.66406 a 17,17 45 0 0 17,17 z"
         sodipodi:nodetypes="ccccc"
         inkscape:original-d="m 352.66797,-589.33464 h 94.66406 v -94.66406 h -94.66406 z"
         inkscape:path-effect="#path-effect35"
         transform="translate(7.3333334,44.000001)" /><path
         id="path5"
         style="fill:#dcdee5;fill-opacity:1"
         d="m 369.66797,-589.33464 h 60.66406 a 17,17 135 0 0 17,-17 v -60.66406 a 17,17 45 0 0 -17,-17 h -60.66406 a 17,17 135 0 0 -17,17 v 60.66406 a 17,17 45 0 0 17,17 z"
         sodipodi:nodetypes="ccccc"
         inkscape:original-d="m 352.66797,-589.33464 h 94.66406 v -94.66406 h -94.66406 z"
         inkscape:path-effect="#path-effect6"
         transform="translate(-11,25.666666)" /></g><g
       id="g8"
       transform="matrix(0.10262626,0,0,0.10262626,13.838812,109.41803)"
       style="fill:#e8eaed"><g
         style="fill:#31373e;fill-opacity:1"
         id="g6"
         transform="matrix(0.04583333,0,0,0.04583333,381.78485,-574.54989)"><path
           d="M 8466.6672,9400.0009 4440.0003,5346.6671 c -177.7778,71.1111 -357.7778,124.4445 -540,160 -182.2223,35.5556 -375.5556,53.3334 -580.0001,53.3334 -888.8889,0 -1644.4445,-311.1111 -2266.6668,-933.3334 C 431.11113,4004.4448 120,3248.8892 120,2360.0002 c 0,-320 44.44445,-624.4445 133.33334,-913.3334 88.8889,-288.8889 213.33335,-562.22221 373.33336,-820.00003 L 2573.3335,2573.3336 3533.3336,1613.3335 1586.6668,-333.3333 c 257.7778,-160.00001 531.1111,-284.44446 820,-373.33336 C 2695.5557,-795.55555 3000.0002,-840 3320.0002,-840 c 888.889,0 1644.4446,311.11113 2266.6669,933.333401 622.2223,622.222269 933.3334,1377.777899 933.3334,2266.666799 0,204.4445 -17.7778,397.7778 -53.3334,580.0001 -35.5555,182.2222 -88.8889,362.2222 -160,540 l 4053.3339,4026.6669 c 106.666,106.6667 160,235.5556 160,386.6667 0,151.1112 -53.334,280.0004 -160,386.6667 L 9240.0009,9400.0009 c -106.6664,106.6665 -235.5558,160 -386.667,160 -151.1111,0 -280,-53.334 -386.6667,-160 z m 386.6667,-1133.3336 360,-360.0001 -4213.3335,-4213.3335 c 160,-177.7778 275.5555,-384.4445 346.6666,-620.0001 71.1111,-235.5555 106.6667,-473.3333 106.6667,-713.3334 0,-533.3333 -171.1111,-997.7778 -513.3333,-1393.3334 C 4597.7781,571.11121 4173.3336,333.33342 3666.6669,253.33341 l 986.6668,986.66679 c 106.6667,106.6667 160,231.1111 160,373.3333 0,142.2223 -53.3333,266.6667 -160,373.3334 L 2946.6669,3693.3337 c -106.6667,106.6667 -231.1111,160 -373.3334,160 -142.2222,0 -266.6666,-53.3333 -373.3333,-160 l -986.6668,-986.6668 c 80,506.6667 317.7778,931.1112 713.3334,1273.3335 395.5556,342.2222 860.0001,513.3333 1393.3334,513.3333 231.1111,0 462.2223,-35.5556 693.3334,-106.6667 231.1111,-71.1111 440,-182.2222 626.6667,-333.3333 z"
           id="path6"
           style="fill:#31373e;fill-opacity:1;stroke-width:13.3333"
           sodipodi:nodetypes="ccsssssccccsssssccssssccccssscsssssscssscc" /></g><g
         style="fill:#8b97a4;fill-opacity:1"
         id="g2"
         transform="matrix(0.04583333,0,0,0.04583333,363.4515,-592.88324)"><path
           d="M 8466.6672,9400.0009 4440.0003,5346.6671 c -177.7778,71.1111 -357.7778,124.4445 -540,160 -182.2223,35.5556 -375.5556,53.3334 -580.0001,53.3334 -888.8889,0 -1644.4445,-311.1111 -2266.6668,-933.3334 C 431.11113,4004.4448 120,3248.8892 120,2360.0002 c 0,-320 44.44445,-624.4445 133.33334,-913.3334 88.8889,-288.8889 213.33335,-562.22221 373.33336,-820.00003 L 2573.3335,2573.3336 3533.3336,1613.3335 1586.6668,-333.3333 c 257.7778,-160.00001 531.1111,-284.44446 820,-373.33336 C 2695.5557,-795.55555 3000.0002,-840 3320.0002,-840 c 888.889,0 1644.4446,311.11113 2266.6669,933.333401 622.2223,622.222269 933.3334,1377.777899 933.3334,2266.666799 0,204.4445 -17.7778,397.7778 -53.3334,580.0001 -35.5555,182.2222 -88.8889,362.2222 -160,540 l 4053.3339,4026.6669 c 106.666,106.6667 160,235.5556 160,386.6667 0,151.1112 -53.334,280.0004 -160,386.6667 L 9240.0009,9400.0009 c -106.6664,106.6665 -235.5558,160 -386.667,160 -151.1111,0 -280,-53.334 -386.6667,-160 z m 386.6667,-1133.3336 360,-360.0001 -4213.3335,-4213.3335 c 160,-177.7778 275.5555,-384.4445 346.6666,-620.0001 71.1111,-235.5555 106.6667,-473.3333 106.6667,-713.3334 0,-533.3333 -171.1111,-997.7778 -513.3333,-1393.3334 C 4597.7781,571.11121 4173.3336,333.33342 3666.6669,253.33341 l 986.6668,986.66679 c 106.6667,106.6667 160,231.1111 160,373.3333 0,142.2223 -53.3333,266.6667 -160,373.3334 L 2946.6669,3693.3337 c -106.6667,106.6667 -231.1111,160 -373.3334,160 -142.2222,0 -266.6666,-53.3333 -373.3333,-160 l -986.6668,-986.6668 c 80,506.6667 317.7778,931.1112 713.3334,1273.3335 395.5556,342.2222 860.0001,513.3333 1393.3334,513.3333 231.1111,0 462.2223,-35.5556 693.3334,-106.6667 231.1111,-71.1111 440,-182.2222 626.6667,-333.3333 z"
           id="path1-4"
           style="fill:#a0acb5;fill-opacity:1;stroke-width:13.3333"
           sodipodi:nodetypes="ccsssssccccsssssccssssccccssscsssssscssscc" /></g></g></g><g
     inkscape:groupmode="layer"
     id="layer3"
     inkscape:label="monochrome"
     style="display:none"><path
       id="path15"
       style="display:inline;fill:#050506;fill-opacity:1;stroke-width:0.115455"
       d="m 36.406817,56.861051 h 7.23485 a 1.8472727,1.8472727 0 0 0 1.847273,-1.847273 v -7.23485 a 1.8472727,1.8472727 0 0 0 -1.847273,-1.847273 h -7.23485 a 1.8472727,1.8472727 0 0 0 -1.847273,1.847273 v 7.23485 a 1.8472727,1.8472727 0 0 0 1.847273,1.847273 z m 36.945454,0 h 7.23485 a 1.8472727,1.8472727 0 0 0 1.847273,-1.847273 v -7.23485 a 1.8472727,1.8472727 0 0 0 -1.847273,-1.847273 h -7.23485 a 1.8472727,1.8472727 0 0 0 -1.847273,1.847273 v 7.23485 a 1.8472727,1.8472727 0 0 0 1.847273,1.847273 z m 18.472727,0 h 7.23485 a 1.8472727,1.8472727 0 0 0 1.847272,-1.847273 v -7.23485 a 1.8472727,1.8472727 0 0 0 -1.847272,-1.847273 h -7.23485 a 1.8472727,1.8472727 0 0 0 -1.847273,1.847273 v 7.23485 a 1.8472727,1.8472727 0 0 0 1.847273,1.847273 z M 36.406817,75.333778 h 7.23485 a 1.8472727,1.8472727 0 0 0 1.847273,-1.847272 v -7.234851 a 1.8472727,1.8472727 0 0 0 -1.847273,-1.847273 h -7.23485 a 1.8472727,1.8472727 0 0 0 -1.847273,1.847273 v 7.234851 a 1.8472727,1.8472727 0 0 0 1.847273,1.847272 z m 18.472727,0 h 7.23485 a 1.8472727,1.8472727 0 0 0 1.847273,-1.847272 v -7.234851 a 1.8472727,1.8472727 0 0 0 -1.847273,-1.847273 h -7.23485 a 1.8472727,1.8472727 0 0 0 -1.847273,1.847273 v 7.234851 a 1.8472727,1.8472727 0 0 0 1.847273,1.847272 z m 18.472727,0 h 7.23485 a 1.8472727,1.8472727 0 0 0 1.847273,-1.847272 v -7.234851 a 1.8472727,1.8472727 0 0 0 -1.847273,-1.847273 h -7.23485 a 1.8472727,1.8472727 0 0 0 -1.847273,1.847273 v 7.234851 a 1.8472727,1.8472727 0 0 0 1.847273,1.847272 z m 18.472727,0 h 7.23485 a 1.8472727,1.8472727 0 0 0 1.847272,-1.847272 v -7.234851 a 1.8472727,1.8472727 0 0 0 -1.847272,-1.847273 h -7.23485 a 1.8472727,1.8472727 0 0 0 -1.847273,1.847273 v 7.234851 a 1.8472727,1.8472727 0 0 0 1.847273,1.847272 z M 50.261362,90.458324 h 34.943941 a 1.8472727,1.8472727 0 0 0 1.847273,-1.847273 V 84.724382 A 1.8472727,1.8472727 0 0 0 85.205303,82.877109 H 50.261362 a 1.8472727,1.8472727 0 0 0 -1.847273,1.847273 v 3.886669 a 1.8472727,1.8472727 0 0 0 1.847273,1.847273 z"
       sodipodi:nodetypes="cccccccccccccccccccccccccccccccccccccccc" /><path
       id="path17"
       style="fill:#050506;fill-opacity:1"
       d="m 369.66797,-589.33464 h 60.66406 a 17,17 135 0 0 17,-17 v -60.66406 a 17,17 45 0 0 -17,-17 h -60.66406 a 17,17 135 0 0 -17,17 v 60.66406 a 17,17 45 0 0 17,17 z"
       sodipodi:nodetypes="ccccc"
       inkscape:original-d="m 352.66797,-589.33464 h 94.66406 v -94.66406 h -94.66406 z"
       inkscape:path-effect="#path-effect23"
       transform="matrix(0.11545454,0,0,0.11545454,6.811818,119.39908)" /><g
       style="fill:#000000;fill-opacity:1"
       id="g19"
       transform="matrix(0.0047037,0,0,0.0047037,50.961167,48.33746)"><path
         d="M 8466.6672,9400.0009 4440.0003,5346.6671 c -177.7778,71.1111 -357.7778,124.4445 -540,160 -182.2223,35.5556 -375.5556,53.3334 -580.0001,53.3334 -888.8889,0 -1644.4445,-311.1111 -2266.6668,-933.3334 C 431.11113,4004.4448 120,3248.8892 120,2360.0002 c 0,-320 44.44445,-624.4445 133.33334,-913.3334 88.8889,-288.8889 213.33335,-562.22221 373.33336,-820.00003 L 2573.3335,2573.3336 3533.3336,1613.3335 1586.6668,-333.3333 c 257.7778,-160.00001 531.1111,-284.44446 820,-373.33336 C 2695.5557,-795.55555 3000.0002,-840 3320.0002,-840 c 888.889,0 1644.4446,311.11113 2266.6669,933.333401 622.2223,622.222269 933.3334,1377.777899 933.3334,2266.666799 0,204.4445 -17.7778,397.7778 -53.3334,580.0001 -35.5555,182.2222 -88.8889,362.2222 -160,540 l 4053.3339,4026.6669 c 106.666,106.6667 160,235.5556 160,386.6667 0,151.1112 -53.334,280.0004 -160,386.6667 L 9240.0009,9400.0009 c -106.6664,106.6665 -235.5558,160 -386.667,160 -151.1111,0 -280,-53.334 -386.6667,-160 z"
         id="path19"
         style="fill:#000000;fill-opacity:1;stroke-width:13.3333"
         sodipodi:nodetypes="ccsssssccccsssssccssssc" /></g></g></svg>
